<svg width="14" height="20" viewBox="0 0 14 20" fill="none" xmlns="http://www.w3.org/2000/svg">
    <g clip-path="url(#clip0_426_2)">
        <path
            d="M0.875 0C0.390104 0 0 0.417969 0 0.9375C0 1.45703 0.390104 1.875 0.875 1.875H1.16667V2.61719C1.16667 4.19141 1.75 5.70312 2.78906 6.81641L5.76406 10L2.78906 13.1836C1.75 14.2969 1.16667 15.8086 1.16667 17.3828V18.125H0.875C0.390104 18.125 0 18.543 0 19.0625C0 19.582 0.390104 20 0.875 20H13.125C13.6099 20 14 19.582 14 19.0625C14 18.543 13.6099 18.125 13.125 18.125H12.8333V17.3828C12.8333 15.8086 12.25 14.2969 11.2109 13.1836L8.23594 10L11.2073 6.81641C12.25 5.70312 12.8333 4.19141 12.8333 2.61719V1.875H13.125C13.6099 1.875 14 1.45703 14 0.9375C14 0.417969 13.6099 0 13.125 0H0.875ZM7 11.3242L9.97135 14.5078C10.6823 15.2734 11.0833 16.3047 11.0833 17.3828V18.125H2.91667V17.3828C2.91667 16.3047 3.31771 15.2734 4.02865 14.5117L7 11.3242ZM7 8.67188L4.02865 5.48828C3.31771 4.72656 2.91667 3.69531 2.91667 2.61719V1.875H11.0833V2.61719C11.0833 3.69531 10.6823 4.72656 9.97135 5.48828L7 8.67578V8.67188Z"
            fill="white" />
    </g>
    <defs>
        <clipPath id="clip0_426_2">
            <rect width="14" height="20" fill="white" />
        </clipPath>
    </defs>
</svg>