<svg width="174" height="200" viewBox="0 0 174 200" fill="none" xmlns="http://www.w3.org/2000/svg">
    <path
        d="M83.5472 200C37.5067 200 0.0195312 162.513 0.0195312 116.472C0.0195312 73.7467 32.3093 38.4285 73.7662 33.5584V20.9126H68.5687C65.9495 20.9126 63.8624 18.7845 63.8624 16.2063V4.70636C63.8624 2.08717 65.9905 0 68.5687 0H98.5258C101.145 0 103.232 2.1281 103.232 4.70636V16.2063C103.232 18.8255 101.104 20.9126 98.5258 20.9126H93.3283V33.5175C109.084 35.3591 123.49 41.6206 135.317 50.9924L142.111 44.1989L141.497 43.585C139.655 41.7434 139.655 38.7559 141.497 36.9143L150.828 27.5834C152.669 25.7418 155.657 25.7418 157.499 27.5834L172.6 42.6847C174.441 44.5263 174.441 47.5138 172.6 49.3554L163.269 58.6863C161.427 60.5279 158.44 60.5279 156.598 58.6863L155.984 58.0724L149.191 64.866C160.404 79.0669 167.075 96.992 167.075 116.431C167.075 162.513 129.588 200 83.5472 200ZM147.676 116.472C147.676 81.1132 118.906 52.343 83.5468 52.343C48.1877 52.343 19.4175 81.1132 19.4175 116.472C19.4175 151.831 48.1468 180.602 83.5468 180.602C118.906 180.602 147.676 151.831 147.676 116.472ZM117.106 82.5865C119.029 84.5099 119.152 87.6202 117.392 89.6665L96.1112 114.59C96.6432 118.478 95.4564 122.529 92.4689 125.517C87.4351 130.55 79.2501 130.55 74.1755 125.517C69.1417 120.483 69.1417 112.298 74.1755 107.223C77.163 104.236 81.2145 103.049 85.1024 103.581L110.026 82.3C112.112 80.5402 115.182 80.663 117.106 82.5865ZM87.0259 112.707C84.9796 110.661 81.6647 110.661 79.6594 112.707C77.6131 114.753 77.6131 118.068 79.6594 120.074C81.7056 122.12 85.0205 122.12 87.0259 120.074C89.0721 118.027 89.0721 114.753 87.0259 112.707Z"
        fill="white" />
</svg>